<svg width="116" height="28" viewBox="0 0 116 28" fill="none" xmlns="http://www.w3.org/2000/svg">
<rect width="28" height="28" rx="3.2" fill="#212121"/>
<path fill-rule="evenodd" clip-rule="evenodd" d="M4 4L4 9L14 14L4 19L4 24L14 19V24L24 19V14V9L14 4V9L4 4ZM14 9V14V19L24 14L14 9Z" fill="white"/>
<path d="M48.0178 11.7066H44.6305C44.5686 11.2684 44.4423 10.8791 44.2515 10.5388C44.0608 10.1934 43.8159 9.89951 43.5168 9.6572C43.2178 9.41488 42.8724 9.22927 42.4805 9.10038C42.0939 8.97148 41.6737 8.90704 41.22 8.90704C40.4002 8.90704 39.6861 9.11069 39.0778 9.51799C38.4694 9.92014 37.9976 10.5079 37.6625 11.2812C37.3274 12.0495 37.1598 12.9826 37.1598 14.0808C37.1598 15.2099 37.3274 16.1586 37.6625 16.9268C38.0028 17.695 38.4771 18.275 39.0855 18.6668C39.6939 19.0587 40.3976 19.2546 41.1968 19.2546C41.6453 19.2546 42.0604 19.1953 42.4419 19.0767C42.8286 18.9581 43.1714 18.7854 43.4704 18.5586C43.7695 18.3265 44.017 18.0456 44.2129 17.7156C44.4139 17.3856 44.5531 17.0093 44.6305 16.5865L48.0178 16.602C47.9301 17.3289 47.711 18.0301 47.3604 18.7055C47.015 19.3757 46.5484 19.9764 45.9607 20.5074C45.3781 21.0333 44.682 21.4509 43.8726 21.7603C43.0683 22.0644 42.1583 22.2165 41.1426 22.2165C39.73 22.2165 38.4668 21.8969 37.3532 21.2576C36.2447 20.6183 35.3682 19.6928 34.7238 18.4812C34.0845 17.2696 33.7648 15.8028 33.7648 14.0808C33.7648 12.3536 34.0896 10.8843 34.7392 9.67266C35.3888 8.46107 36.2705 7.53819 37.3841 6.90404C38.4978 6.26473 39.7506 5.94507 41.1426 5.94507C42.0604 5.94507 42.9111 6.07397 43.6947 6.33175C44.4835 6.58954 45.1821 6.96591 45.7905 7.46086C46.3989 7.95065 46.8938 8.55129 47.2754 9.26278C47.6621 9.97427 47.9095 10.7889 48.0178 11.7066ZM52.8734 22.2243C52.1155 22.2243 51.4401 22.0928 50.8472 21.8299C50.2543 21.5618 49.7851 21.1674 49.4397 20.6466C49.0994 20.1207 48.9293 19.466 48.9293 18.6823C48.9293 18.0224 49.0504 17.4681 49.2928 17.0196C49.5351 16.571 49.865 16.2101 50.2827 15.9369C50.7003 15.6636 51.1746 15.4574 51.7056 15.3182C52.2418 15.179 52.8038 15.081 53.3916 15.0243C54.0824 14.9521 54.6392 14.8851 55.062 14.8232C55.4848 14.7562 55.7915 14.6582 55.9823 14.5294C56.1731 14.4005 56.2685 14.2097 56.2685 13.9571V13.9107C56.2685 13.4209 56.1138 13.0419 55.8044 12.7738C55.5002 12.5057 55.0672 12.3717 54.5052 12.3717C53.9123 12.3717 53.4405 12.5032 53.0899 12.7661C52.7394 13.0239 52.5073 13.3487 52.3939 13.7405L49.3469 13.4931C49.5016 12.7713 49.8057 12.1474 50.2595 11.6215C50.7132 11.0905 51.2983 10.6832 52.015 10.3996C52.7368 10.1109 53.572 9.96654 54.5207 9.96654C55.1806 9.96654 55.8122 10.0439 56.4154 10.1985C57.0238 10.3532 57.5625 10.593 58.0317 10.9178C58.506 11.2426 58.8798 11.6602 59.1531 12.1706C59.4263 12.6759 59.563 13.2817 59.563 13.988V22H56.4386V20.3527H56.3458C56.155 20.724 55.8998 21.0513 55.5802 21.3349C55.2605 21.6133 54.8764 21.8324 54.4279 21.9923C53.9793 22.1469 53.4612 22.2243 52.8734 22.2243ZM53.8169 19.9506C54.3015 19.9506 54.7295 19.8552 55.1007 19.6645C55.4719 19.4685 55.7632 19.2056 55.9746 18.8756C56.186 18.5457 56.2917 18.1719 56.2917 17.7543V16.4937C56.1885 16.5607 56.0468 16.6226 55.8663 16.6793C55.691 16.7308 55.4925 16.7798 55.2708 16.8262C55.0491 16.8675 54.8274 16.9061 54.6057 16.9422C54.384 16.9732 54.183 17.0015 54.0025 17.0273C53.6158 17.084 53.2781 17.1742 52.9894 17.298C52.7007 17.4217 52.4764 17.5893 52.3166 17.8007C52.1568 18.0069 52.0768 18.2647 52.0768 18.574C52.0768 19.0226 52.2393 19.3654 52.5641 19.6026C52.894 19.8346 53.3116 19.9506 53.8169 19.9506ZM61.2478 22V10.1212H64.4418V12.1938H64.5655C64.782 11.4565 65.1455 10.8997 65.6559 10.5234C66.1664 10.1418 66.7541 9.95107 67.4192 9.95107C67.5842 9.95107 67.7621 9.96138 67.9528 9.98201C68.1436 10.0026 68.3111 10.031 68.4555 10.0671V12.9904C68.3008 12.944 68.0869 12.9027 67.8136 12.8666C67.5404 12.8305 67.2903 12.8125 67.0635 12.8125C66.5788 12.8125 66.1457 12.9182 65.7642 13.1296C65.3878 13.3358 65.0888 13.6245 64.8671 13.9957C64.6506 14.3669 64.5423 14.7949 64.5423 15.2795V22H61.2478ZM79.1712 13.5085L76.1551 13.6941C76.1036 13.4363 75.9927 13.2043 75.8226 12.9981C75.6525 12.7867 75.4282 12.6192 75.1498 12.4954C74.8765 12.3665 74.5491 12.3021 74.1676 12.3021C73.6572 12.3021 73.2267 12.4104 72.8761 12.6269C72.5255 12.8383 72.3502 13.1218 72.3502 13.4776C72.3502 13.7612 72.4636 14.0009 72.6905 14.1968C72.9173 14.3927 73.3066 14.55 73.8583 14.6686L76.0082 15.1016C77.1631 15.3388 78.0241 15.7203 78.5912 16.2462C79.1583 16.7721 79.4419 17.463 79.4419 18.3188C79.4419 19.0973 79.2125 19.7805 78.7536 20.3682C78.2999 20.956 77.6761 21.4148 76.8821 21.7448C76.0933 22.0696 75.1833 22.232 74.1521 22.232C72.5796 22.232 71.3268 21.9046 70.3936 21.2498C69.4656 20.5899 68.9217 19.6928 68.7618 18.5586L72.0022 18.3884C72.1002 18.8679 72.3373 19.234 72.7137 19.4866C73.0901 19.7341 73.5721 19.8578 74.1599 19.8578C74.7373 19.8578 75.2013 19.7469 75.5519 19.5253C75.9077 19.2984 76.0881 19.0071 76.0933 18.6514C76.0881 18.3523 75.9618 18.1074 75.7143 17.9167C75.4668 17.7207 75.0853 17.5712 74.5698 17.4681L72.5126 17.0582C71.3526 16.8262 70.489 16.4241 69.9219 15.8518C69.3599 15.2795 69.0789 14.55 69.0789 13.6632C69.0789 12.9001 69.2851 12.2428 69.6976 11.6911C70.1152 11.1395 70.7004 10.7141 71.4531 10.4151C72.211 10.1161 73.0978 9.96654 74.1135 9.96654C75.6138 9.96654 76.7944 10.2836 77.6555 10.9178C78.5216 11.5519 79.0269 12.4155 79.1712 13.5085ZM86.0124 22.232C84.8112 22.232 83.7723 21.9768 82.8958 21.4664C82.0245 20.9508 81.3517 20.2342 80.8773 19.3164C80.403 18.3936 80.1659 17.3238 80.1659 16.107C80.1659 14.8799 80.403 13.8076 80.8773 12.8898C81.3517 11.967 82.0245 11.2503 82.8958 10.7399C83.7723 10.2243 84.8112 9.96654 86.0124 9.96654C87.2137 9.96654 88.25 10.2243 89.1213 10.7399C89.9978 11.2503 90.6732 11.967 91.1475 12.8898C91.6219 13.8076 91.859 14.8799 91.859 16.107C91.859 17.3238 91.6219 18.3936 91.1475 19.3164C90.6732 20.2342 89.9978 20.9508 89.1213 21.4664C88.25 21.9768 87.2137 22.232 86.0124 22.232ZM86.0279 19.6799C86.5744 19.6799 87.0307 19.5253 87.3968 19.2159C87.7628 18.9014 88.0386 18.4735 88.2242 17.9321C88.415 17.3908 88.5104 16.7747 88.5104 16.0838C88.5104 15.3929 88.415 14.7768 88.2242 14.2355C88.0386 13.6941 87.7628 13.2662 87.3968 12.9517C87.0307 12.6372 86.5744 12.48 86.0279 12.48C85.4762 12.48 85.0122 12.6372 84.6359 12.9517C84.2647 13.2662 83.9837 13.6941 83.7929 14.2355C83.6073 14.7768 83.5145 15.3929 83.5145 16.0838C83.5145 16.7747 83.6073 17.3908 83.7929 17.9321C83.9837 18.4735 84.2647 18.9014 84.6359 19.2159C85.0122 19.5253 85.4762 19.6799 86.0279 19.6799ZM103.822 10.1212L99.6689 22H95.9568L91.8038 10.1212H95.2839L97.7509 18.6204H97.8747L100.334 10.1212H103.822ZM107.705 22.2243C106.947 22.2243 106.272 22.0928 105.679 21.8299C105.086 21.5618 104.617 21.1674 104.271 20.6466C103.931 20.1207 103.761 19.466 103.761 18.6823C103.761 18.0224 103.882 17.4681 104.124 17.0196C104.367 16.571 104.697 16.2101 105.114 15.9369C105.532 15.6636 106.006 15.4574 106.537 15.3182C107.073 15.179 107.635 15.081 108.223 15.0243C108.914 14.9521 109.471 14.8851 109.894 14.8232C110.316 14.7562 110.623 14.6582 110.814 14.5294C111.005 14.4005 111.1 14.2097 111.1 13.9571V13.9107C111.1 13.4209 110.945 13.0419 110.636 12.7738C110.332 12.5057 109.899 12.3717 109.337 12.3717C108.744 12.3717 108.272 12.5032 107.921 12.7661C107.571 13.0239 107.339 13.3487 107.225 13.7405L104.178 13.4931C104.333 12.7713 104.637 12.1474 105.091 11.6215C105.545 11.0905 106.13 10.6832 106.846 10.3996C107.568 10.1109 108.404 9.96654 109.352 9.96654C110.012 9.96654 110.644 10.0439 111.247 10.1985C111.855 10.3532 112.394 10.593 112.863 10.9178C113.338 11.2426 113.711 11.6602 113.985 12.1706C114.258 12.6759 114.394 13.2817 114.394 13.988V22H111.27V20.3527H111.177C110.987 20.724 110.731 21.0513 110.412 21.3349C110.092 21.6133 109.708 21.8324 109.259 21.9923C108.811 22.1469 108.293 22.2243 107.705 22.2243ZM108.648 19.9506C109.133 19.9506 109.561 19.8552 109.932 19.6645C110.303 19.4685 110.595 19.2056 110.806 18.8756C111.017 18.5457 111.123 18.1719 111.123 17.7543V16.4937C111.02 16.5607 110.878 16.6226 110.698 16.6793C110.523 16.7308 110.324 16.7798 110.102 16.8262C109.881 16.8675 109.659 16.9061 109.437 16.9422C109.216 16.9732 109.014 17.0015 108.834 17.0273C108.447 17.084 108.11 17.1742 107.821 17.298C107.532 17.4217 107.308 17.5893 107.148 17.8007C106.988 18.0069 106.908 18.2647 106.908 18.574C106.908 19.0226 107.071 19.3654 107.396 19.6026C107.726 19.8346 108.143 19.9506 108.648 19.9506Z" fill="#212121"/>
</svg>
