<svg width="265" height="47" viewBox="0 0 265 47" fill="none" xmlns="http://www.w3.org/2000/svg">
<path d="M10.6911 46H0.475142L16.0412 0.90909H28.3267L43.8707 46H33.6548L22.3601 11.2131H22.0078L10.6911 46ZM10.0526 28.2763H34.1832V35.718H10.0526V28.2763ZM70.8086 31.6009V12.1818H80.1879V46H71.1829V39.8572H70.8306C70.0674 41.8388 68.7977 43.4313 67.0217 44.6349C65.2603 45.8385 63.11 46.4403 60.5707 46.4403C58.3103 46.4403 56.3214 45.9266 54.604 44.8991C52.8867 43.8717 51.5437 42.4112 50.5749 40.5178C49.6209 38.6243 49.1365 36.3565 49.1218 33.7145V12.1818H58.5011V32.0412C58.5157 34.0374 59.0515 35.6153 60.1083 36.7749C61.1651 37.9344 62.5816 38.5142 64.3576 38.5142C65.4878 38.5142 66.5446 38.2573 67.5281 37.7436C68.5115 37.2152 69.3041 36.4373 69.9059 35.4098C70.5224 34.3823 70.8233 33.1127 70.8086 31.6009ZM105.678 12.1818V19.2273H85.3123V12.1818H105.678ZM89.9359 4.07954H99.3152V35.608C99.3152 36.474 99.4473 37.1491 99.7115 37.6335C99.9757 38.1032 100.343 38.4335 100.812 38.6243C101.297 38.8151 101.854 38.9105 102.486 38.9105C102.926 38.9105 103.366 38.8738 103.807 38.8004C104.247 38.7124 104.585 38.6463 104.819 38.6023L106.295 45.5817C105.825 45.7285 105.164 45.8973 104.313 46.0881C103.462 46.2936 102.427 46.4183 101.209 46.4624C98.9482 46.5504 96.9667 46.2495 95.264 45.5597C93.5761 44.8698 92.2624 43.7983 91.323 42.3452C90.3836 40.892 89.9212 39.0573 89.9359 36.8409V4.07954ZM126.704 46.6605C123.284 46.6605 120.327 45.9339 117.831 44.4808C115.351 43.013 113.435 40.9728 112.085 38.3601C110.735 35.7327 110.059 32.687 110.059 29.223C110.059 25.7296 110.735 22.6766 112.085 20.0639C113.435 17.4366 115.351 15.3963 117.831 13.9432C120.327 12.4754 123.284 11.7415 126.704 11.7415C130.124 11.7415 133.075 12.4754 135.555 13.9432C138.05 15.3963 139.973 17.4366 141.324 20.0639C142.674 22.6766 143.349 25.7296 143.349 29.223C143.349 32.687 142.674 35.7327 141.324 38.3601C139.973 40.9728 138.05 43.013 135.555 44.4808C133.075 45.9339 130.124 46.6605 126.704 46.6605ZM126.748 39.3949C128.304 39.3949 129.603 38.9545 130.645 38.0739C131.688 37.1785 132.473 35.9602 133.001 34.419C133.544 32.8778 133.816 31.1238 133.816 29.157C133.816 27.1901 133.544 25.4361 133.001 23.8949C132.473 22.3537 131.688 21.1354 130.645 20.2401C129.603 19.3447 128.304 18.897 126.748 18.897C125.178 18.897 123.857 19.3447 122.785 20.2401C121.729 21.1354 120.929 22.3537 120.385 23.8949C119.857 25.4361 119.593 27.1901 119.593 29.157C119.593 31.1238 119.857 32.8778 120.385 34.419C120.929 35.9602 121.729 37.1785 122.785 38.0739C123.857 38.9545 125.178 39.3949 126.748 39.3949ZM150.659 46V0.90909H157.462V20.5043H179.942V0.90909H186.767V46H179.942V26.3388H157.462V46H150.659ZM217.569 31.9751V12.1818H224.174V46H217.701V40.1435H217.349C216.571 41.9489 215.323 43.4534 213.606 44.657C211.903 45.8459 209.782 46.4403 207.243 46.4403C205.07 46.4403 203.148 45.9633 201.474 45.0092C199.816 44.0405 198.509 42.6094 197.555 40.7159C196.616 38.8224 196.146 36.4813 196.146 33.6925V12.1818H202.729V32.8999C202.729 35.2043 203.368 37.0391 204.645 38.4041C205.922 39.7692 207.58 40.4517 209.621 40.4517C210.854 40.4517 212.079 40.1435 213.297 39.527C214.53 38.9105 215.55 37.9785 216.358 36.7308C217.18 35.4832 217.583 33.898 217.569 31.9751ZM233.548 46V0.90909H240.131V17.6641H240.527C240.909 16.9595 241.459 16.1449 242.178 15.2202C242.897 14.2955 243.896 13.4882 245.173 12.7983C246.45 12.0938 248.138 11.7415 250.237 11.7415C252.967 11.7415 255.403 12.4313 257.546 13.8111C259.689 15.1908 261.37 17.1797 262.588 19.7777C263.821 22.3757 264.438 25.5021 264.438 29.157C264.438 32.8118 263.828 35.9455 262.61 38.5582C261.392 41.1562 259.719 43.1598 257.59 44.5689C255.462 45.9633 253.033 46.6605 250.303 46.6605C248.248 46.6605 246.567 46.3156 245.261 45.6257C243.969 44.9358 242.956 44.1286 242.222 43.2038C241.488 42.2791 240.923 41.4571 240.527 40.7379H239.977V46H233.548ZM239.999 29.0909C239.999 31.4687 240.344 33.553 241.033 35.3438C241.723 37.1345 242.721 38.5362 244.028 39.549C245.334 40.5471 246.934 41.0462 248.827 41.0462C250.794 41.0462 252.438 40.5251 253.759 39.483C255.08 38.4261 256.078 36.995 256.754 35.1896C257.443 33.3842 257.788 31.3513 257.788 29.0909C257.788 26.8598 257.451 24.8563 256.776 23.0803C256.115 21.3042 255.117 19.9025 253.781 18.875C252.46 17.8475 250.809 17.3338 248.827 17.3338C246.919 17.3338 245.305 17.8255 243.984 18.8089C242.677 19.7924 241.687 21.1648 241.011 22.9261C240.336 24.6875 239.999 26.7424 239.999 29.0909Z" fill="white"/>
</svg>
