<svg width="184" height="64" viewBox="0 0 184 64" fill="none" xmlns="http://www.w3.org/2000/svg">
<path opacity="0.8" d="M45.4547 33.2083C45.1477 29.487 42.0301 26.5625 38.2295 26.5625C34.2254 26.5625 30.9795 29.8084 30.9795 33.8125C30.9795 37.8166 34.2254 41.0625 38.2295 41.0625H49.1045V33.2083H45.4547Z" fill="#202020"/>
<circle cx="48.5" cy="32" r="9.0625" fill="#202020"/>
<path d="M62.9375 32.121C62.9375 30.9142 63.1687 29.8598 63.6311 28.9575C64.1048 28.044 64.7758 27.3392 65.6442 26.843C66.5238 26.3467 67.5558 26.0986 68.7399 26.0986C69.6647 26.0986 70.4936 26.2791 71.2267 26.64C71.9597 27.0009 72.5518 27.5084 73.0029 28.1625C73.454 28.8166 73.7247 29.5722 73.8149 30.4293H71.2774C71.1308 29.7526 70.8207 29.2226 70.347 28.8391C69.8846 28.4444 69.3038 28.247 68.6046 28.247C67.6573 28.247 66.9073 28.6023 66.3547 29.3128C65.8021 30.0233 65.5258 30.9594 65.5258 32.121C65.5258 33.2713 65.8021 34.2074 66.3547 34.9291C66.9073 35.6396 67.6573 35.9949 68.6046 35.9949C69.3038 35.9949 69.8846 35.8032 70.347 35.4197C70.8207 35.025 71.1308 34.4893 71.2774 33.8126H73.8149C73.7247 34.6697 73.454 35.4254 73.0029 36.0795C72.5518 36.7336 71.9597 37.2411 71.2267 37.602C70.4936 37.9629 69.6647 38.1433 68.7399 38.1433C67.5558 38.1433 66.5238 37.8952 65.6442 37.399C64.7758 36.9027 64.1048 36.2035 63.6311 35.3013C63.1687 34.3878 62.9375 33.3277 62.9375 32.121Z" fill="#202020"/>
<path d="M74.4264 26.2001H76.8117V38.0418H74.4264V26.2001Z" fill="#202020"/>
<path d="M82.0433 38.1433C81.1298 38.1433 80.3234 37.9629 79.6242 37.602C78.9363 37.2298 78.4006 36.7054 78.0171 36.0287C77.645 35.352 77.4589 34.5739 77.4589 33.6942C77.4589 32.8146 77.645 32.0364 78.0171 31.3597C78.4006 30.683 78.9363 30.1643 79.6242 29.8034C80.3234 29.4312 81.1298 29.2451 82.0433 29.2451C82.9568 29.2451 83.7575 29.4312 84.4455 29.8034C85.1447 30.1643 85.6804 30.683 86.0525 31.3597C86.436 32.0364 86.6277 32.8146 86.6277 33.6942C86.6277 34.5852 86.436 35.369 86.0525 36.0456C85.6804 36.711 85.1447 37.2298 84.4455 37.602C83.7575 37.9629 82.9568 38.1433 82.0433 38.1433ZM82.0433 36.1979C82.7087 36.1979 83.2331 35.9667 83.6165 35.5043C84.0113 35.0419 84.2086 34.4386 84.2086 33.6942C84.2086 32.9499 84.0113 32.3465 83.6165 31.8841C83.2331 31.4217 82.7087 31.1905 82.0433 31.1905C81.3892 31.1905 80.8648 31.4217 80.47 31.8841C80.0866 32.3465 79.8949 32.9499 79.8949 33.6942C79.8949 34.4386 80.0866 35.0419 80.47 35.5043C80.8648 35.9667 81.3892 36.1979 82.0433 36.1979Z" fill="#202020"/>
<path d="M95.4516 29.3466V38.0418H93.337L93.1171 36.993C92.8126 37.3539 92.4573 37.6358 92.0513 37.8388C91.6453 38.0418 91.1491 38.1433 90.5627 38.1433C89.5477 38.1433 88.7188 37.8332 88.0759 37.2129C87.4331 36.5813 87.1117 35.5325 87.1117 34.0664V29.3466H89.4969V33.7788C89.4969 34.5682 89.6323 35.166 89.9029 35.572C90.1849 35.9667 90.6134 36.1641 91.1886 36.1641C91.7863 36.1641 92.2487 35.9441 92.5758 35.5043C92.9028 35.0532 93.0663 34.4273 93.0663 33.6265V29.3466H95.4516Z" fill="#202020"/>
<path d="M105.128 26.2001V38.0418H103.048L102.811 36.8407C102.145 37.7091 101.243 38.1433 100.104 38.1433C99.3373 38.1433 98.6494 37.9629 98.0404 37.602C97.4314 37.2298 96.9521 36.7054 96.6025 36.0287C96.2641 35.352 96.095 34.5682 96.095 33.6773C96.095 32.7976 96.2641 32.0251 96.6025 31.3597C96.9521 30.683 97.4314 30.1643 98.0404 29.8034C98.6607 29.4312 99.3542 29.2451 100.121 29.2451C101.249 29.2451 102.123 29.6399 102.743 30.4293V26.2001H105.128ZM100.662 36.1979C101.305 36.1979 101.818 35.9723 102.202 35.5212C102.585 35.0588 102.777 34.4555 102.777 33.7111C102.777 32.9555 102.585 32.3465 102.202 31.8841C101.818 31.4217 101.305 31.1905 100.662 31.1905C100.02 31.1905 99.5009 31.4217 99.1061 31.8841C98.7227 32.3465 98.531 32.9499 98.531 33.6942C98.531 34.4386 98.7227 35.0419 99.1061 35.5043C99.5009 35.9667 100.02 36.1979 100.662 36.1979Z" fill="#202020"/>
<path d="M105.438 26.2001L108.06 26.1832L110.242 34.8446L112.56 26.2001H114.844L117.094 34.8446L119.327 26.2001H121.898L118.616 38.0418H115.69L113.643 30.1755L111.647 38.0418H108.72L105.438 26.2001Z" fill="#202020"/>
<path d="M129.857 36.0287V38.0418H128.639C127.545 38.0418 127.01 37.5681 127.032 36.6208C126.716 37.117 126.327 37.4948 125.865 37.7542C125.403 38.0136 124.844 38.1433 124.19 38.1433C123.22 38.1433 122.437 37.9234 121.839 37.4836C121.252 37.0324 120.959 36.4009 120.959 35.5889C120.959 34.6641 121.297 33.9536 121.974 33.4574C122.662 32.9499 123.655 32.6961 124.951 32.6961H126.677V32.2732C126.677 31.8785 126.53 31.5684 126.237 31.3428C125.944 31.106 125.549 30.9875 125.053 30.9875C124.613 30.9875 124.252 31.0834 123.97 31.2751C123.688 31.4669 123.519 31.7262 123.463 32.0533H121.162C121.241 31.1624 121.636 30.4744 122.346 29.9895C123.057 29.4932 123.999 29.2451 125.171 29.2451C126.401 29.2451 127.348 29.5158 128.013 30.0571C128.69 30.5985 129.028 31.3823 129.028 32.4085V35.4705C129.028 35.6847 129.074 35.8314 129.164 35.9103C129.254 35.9892 129.395 36.0287 129.587 36.0287H129.857ZM126.677 34.2863H124.935C124.438 34.2863 124.049 34.3878 123.767 34.5908C123.497 34.7825 123.361 35.0588 123.361 35.4197C123.361 35.7242 123.474 35.9667 123.7 36.1471C123.936 36.3276 124.252 36.4178 124.647 36.4178C125.267 36.4178 125.758 36.243 126.119 35.8934C126.48 35.5325 126.666 35.0532 126.677 34.4555V34.2863Z" fill="#202020"/>
<path d="M130.662 31.3597H129.224V29.3466H130.662V26.9106H133.047V29.3466H135.026V31.3597H133.047V35.166C133.047 35.4705 133.109 35.6904 133.233 35.8257C133.368 35.961 133.588 36.0287 133.893 36.0287H135.128V38.0418H133.148C131.491 38.0418 130.662 37.2129 130.662 35.5551V31.3597Z" fill="#202020"/>
<path d="M143.681 34.743C143.523 35.8032 143.072 36.6377 142.328 37.2467C141.595 37.8444 140.642 38.1433 139.469 38.1433C138.567 38.1433 137.777 37.9629 137.101 37.602C136.424 37.2298 135.9 36.7054 135.527 36.0287C135.167 35.352 134.986 34.5739 134.986 33.6942C134.986 32.8033 135.167 32.0251 135.527 31.3597C135.9 30.683 136.424 30.1643 137.101 29.8034C137.789 29.4312 138.584 29.2451 139.486 29.2451C140.648 29.2451 141.595 29.544 142.328 30.1417C143.061 30.7282 143.512 31.5458 143.681 32.5946H141.211C141.11 32.1661 140.907 31.8277 140.602 31.5796C140.298 31.3202 139.92 31.1905 139.469 31.1905C138.849 31.1905 138.353 31.4217 137.98 31.8841C137.608 32.3465 137.422 32.9499 137.422 33.6942C137.422 34.4386 137.608 35.0419 137.98 35.5043C138.353 35.9667 138.849 36.1979 139.469 36.1979C139.931 36.1979 140.315 36.0682 140.619 35.8088C140.935 35.5494 141.138 35.1942 141.228 34.743H143.681Z" fill="#202020"/>
<path d="M149.252 29.2451C150.278 29.2451 151.119 29.5609 151.773 30.1925C152.438 30.824 152.771 31.8672 152.771 33.3221V38.0418H150.386V33.4235C150.386 32.7018 150.239 32.1548 149.946 31.7826C149.653 31.3992 149.213 31.2075 148.626 31.2075C148.017 31.2075 147.538 31.4161 147.188 31.8334C146.85 32.2507 146.681 32.8315 146.681 33.5758V38.0418H144.296V26.2001H146.681V30.4124C147.324 29.6342 148.181 29.2451 149.252 29.2451Z" fill="#202020"/>
</svg>
