<svg width="184" height="64" viewBox="0 0 184 64" fill="none" xmlns="http://www.w3.org/2000/svg">
<path d="M47.9442 19.9165C45.745 19.9165 43.9687 21.6712 43.9688 23.8436C43.9688 25.9993 45.745 27.7539 47.9272 27.7707C47.3859 27.7539 46.963 27.3195 46.963 26.7847C46.963 26.25 47.4028 25.7988 47.9611 25.7988C50.3294 25.7988 55.5905 25.7988 57.9081 25.7988C59.549 25.7988 60.8854 24.4786 60.8854 22.8577C60.8854 21.2367 59.549 19.9165 57.9081 19.9165L47.9442 19.9165Z" fill="#202020"/>
<path opacity="0.9" d="M43.1112 27.7705C40.912 27.7705 39.1357 29.5252 39.1357 31.6976C39.1357 33.8533 40.912 35.6079 43.0942 35.6247C42.5529 35.6079 42.13 35.1735 42.13 34.6387C42.13 34.104 42.5698 33.6528 43.1281 33.6528C45.4964 33.6528 50.7575 33.6528 53.0751 33.6528C54.716 33.6528 56.0524 32.3326 56.0524 30.7117C56.0524 29.0907 54.716 27.7705 53.0751 27.7705L43.1112 27.7705Z" fill="#202020"/>
<path opacity="0.8" d="M39.7701 35.625C37.4139 35.625 35.5107 37.5146 35.5107 39.8542C35.5107 42.1757 37.4139 44.0653 39.752 44.0833C39.172 44.0653 38.7189 43.5974 38.7189 43.0215C38.7189 42.4457 39.1901 41.9598 39.7883 41.9598C42.3257 41.9598 47.9626 41.9598 50.4458 41.9598C52.2039 41.9598 53.6357 40.538 53.6357 38.7924C53.6357 37.0467 52.2039 35.625 50.4458 35.625L39.7701 35.625Z" fill="#202020"/>
<path d="M66.915 37.9867V25.2992H75.0713V27.4742H69.3075V30.501H74.5638V32.676H69.3075V35.8117H75.18V37.9867H66.915Z" fill="#202020"/>
<path d="M76.1173 41.6117V28.9967H78.3648V30.0842H78.6911C78.8965 29.7337 79.2167 29.4256 79.6517 29.1598C80.0867 28.8819 80.709 28.7429 81.5186 28.7429C82.2436 28.7429 82.9142 28.9242 83.5304 29.2867C84.1467 29.6371 84.6421 30.1567 85.0167 30.8454C85.3913 31.5342 85.5786 32.3679 85.5786 33.3467V33.6367C85.5786 34.6154 85.3913 35.4492 85.0167 36.1379C84.6421 36.8267 84.1467 37.3523 83.5304 37.7148C82.9142 38.0652 82.2436 38.2404 81.5186 38.2404C80.9748 38.2404 80.5156 38.174 80.1411 38.041C79.7786 37.9202 79.4825 37.7631 79.2529 37.5698C79.0354 37.3644 78.8602 37.159 78.7273 36.9535H78.4011V41.6117H76.1173ZM80.8298 36.2467C81.5427 36.2467 82.1288 36.0231 82.5879 35.576C83.0592 35.1169 83.2948 34.4523 83.2948 33.5823V33.401C83.2948 32.531 83.0592 31.8725 82.5879 31.4254C82.1167 30.9662 81.5306 30.7367 80.8298 30.7367C80.129 30.7367 79.5429 30.9662 79.0717 31.4254C78.6004 31.8725 78.3648 32.531 78.3648 33.401V33.5823C78.3648 34.4523 78.6004 35.1169 79.0717 35.576C79.5429 36.0231 80.129 36.2467 80.8298 36.2467Z" fill="#202020"/>
<path d="M86.7693 37.9867V28.9967H89.053V37.9867H86.7693ZM87.9112 27.9454C87.5003 27.9454 87.1499 27.8125 86.8599 27.5467C86.582 27.2808 86.443 26.9304 86.443 26.4954C86.443 26.0604 86.582 25.71 86.8599 25.4442C87.1499 25.1783 87.5003 25.0454 87.9112 25.0454C88.3341 25.0454 88.6845 25.1783 88.9624 25.4442C89.2403 25.71 89.3793 26.0604 89.3793 26.4954C89.3793 26.9304 89.2403 27.2808 88.9624 27.5467C88.6845 27.8125 88.3341 27.9454 87.9112 27.9454Z" fill="#202020"/>
<path d="M94.9006 38.2404C94.0306 38.2404 93.2391 38.0592 92.5262 37.6967C91.8254 37.3342 91.2696 36.8085 90.8587 36.1198C90.4479 35.431 90.2425 34.5973 90.2425 33.6185V33.3648C90.2425 32.386 90.4479 31.5523 90.8587 30.8635C91.2696 30.1748 91.8254 29.6492 92.5262 29.2867C93.2391 28.9242 94.0306 28.7429 94.9006 28.7429C95.7585 28.7429 96.4956 28.894 97.1119 29.196C97.7281 29.4981 98.2235 29.915 98.5981 30.4467C98.9848 30.9662 99.2385 31.5583 99.3594 32.2229L97.1481 32.6942C97.0998 32.3317 96.991 32.0054 96.8219 31.7154C96.6527 31.4254 96.411 31.1958 96.0969 31.0267C95.7948 30.8575 95.4141 30.7729 94.955 30.7729C94.4958 30.7729 94.0789 30.8756 93.7044 31.081C93.3419 31.2744 93.0519 31.5704 92.8344 31.9692C92.6289 32.3558 92.5262 32.8331 92.5262 33.401V33.5823C92.5262 34.1502 92.6289 34.6335 92.8344 35.0323C93.0519 35.419 93.3419 35.715 93.7044 35.9204C94.0789 36.1137 94.4958 36.2104 94.955 36.2104C95.6437 36.2104 96.1633 36.0352 96.5137 35.6848C96.8762 35.3223 97.1058 34.851 97.2025 34.271L99.4137 34.7967C99.2566 35.4371 98.9848 36.0231 98.5981 36.5548C98.2235 37.0744 97.7281 37.4852 97.1119 37.7873C96.4956 38.0894 95.7585 38.2404 94.9006 38.2404Z" fill="#202020"/>
<path d="M103.817 38.1317C103.116 38.1317 102.5 37.9746 101.968 37.6604C101.449 37.3342 101.044 36.8871 100.754 36.3192C100.464 35.7512 100.319 35.0987 100.319 34.3617V28.9967H102.603V34.1804C102.603 34.8571 102.766 35.3646 103.092 35.7029C103.43 36.0412 103.908 36.2104 104.524 36.2104C105.225 36.2104 105.768 35.9808 106.155 35.5217C106.542 35.0504 106.735 34.3979 106.735 33.5642V28.9967H109.019V37.9867H106.771V36.8085H106.445C106.3 37.1106 106.028 37.4067 105.629 37.6967C105.231 37.9867 104.627 38.1317 103.817 38.1317Z" fill="#202020"/>
<path d="M110.654 37.9867V28.9967H112.901V30.0117H113.228C113.361 29.6492 113.578 29.3833 113.88 29.2142C114.194 29.045 114.557 28.9604 114.968 28.9604H116.055V30.9904H114.931C114.351 30.9904 113.874 31.1475 113.5 31.4617C113.125 31.7637 112.938 32.235 112.938 32.8754V37.9867H110.654Z" fill="#202020"/>
<path d="M116.934 37.9867V28.9967H119.218V37.9867H116.934ZM118.076 27.9454C117.665 27.9454 117.315 27.8125 117.025 27.5467C116.747 27.2808 116.608 26.9304 116.608 26.4954C116.608 26.0604 116.747 25.71 117.025 25.4442C117.315 25.1783 117.665 25.0454 118.076 25.0454C118.499 25.0454 118.849 25.1783 119.127 25.4442C119.405 25.71 119.544 26.0604 119.544 26.4954C119.544 26.9304 119.405 27.2808 119.127 27.5467C118.849 27.8125 118.499 27.9454 118.076 27.9454Z" fill="#202020"/>
<path d="M125.12 38.2404C124.225 38.2404 123.422 38.0592 122.709 37.6967C121.996 37.3342 121.434 36.8085 121.023 36.1198C120.613 35.431 120.407 34.6033 120.407 33.6367V33.3467C120.407 32.38 120.613 31.5523 121.023 30.8635C121.434 30.1748 121.996 29.6492 122.709 29.2867C123.422 28.9242 124.225 28.7429 125.12 28.7429C126.014 28.7429 126.817 28.9242 127.53 29.2867C128.243 29.6492 128.805 30.1748 129.216 30.8635C129.627 31.5523 129.832 32.38 129.832 33.3467V33.6367C129.832 34.6033 129.627 35.431 129.216 36.1198C128.805 36.8085 128.243 37.3342 127.53 37.6967C126.817 38.0592 126.014 38.2404 125.12 38.2404ZM125.12 36.2104C125.82 36.2104 126.4 35.9869 126.86 35.5398C127.319 35.0806 127.548 34.4281 127.548 33.5823V33.401C127.548 32.5552 127.319 31.9087 126.86 31.4617C126.413 31.0025 125.833 30.7729 125.12 30.7729C124.419 30.7729 123.839 31.0025 123.38 31.4617C122.92 31.9087 122.691 32.5552 122.691 33.401V33.5823C122.691 34.4281 122.92 35.0806 123.38 35.5398C123.839 35.9869 124.419 36.2104 125.12 36.2104Z" fill="#202020"/>
<path d="M134.46 38.1317C133.759 38.1317 133.142 37.9746 132.611 37.6604C132.091 37.3342 131.686 36.8871 131.396 36.3192C131.106 35.7512 130.961 35.0987 130.961 34.3617V28.9967H133.245V34.1804C133.245 34.8571 133.408 35.3646 133.735 35.7029C134.073 36.0412 134.55 36.2104 135.166 36.2104C135.867 36.2104 136.411 35.9808 136.798 35.5217C137.184 35.0504 137.378 34.3979 137.378 33.5642V28.9967H139.661V37.9867H137.414V36.8085H137.088C136.943 37.1106 136.671 37.4067 136.272 37.6967C135.873 37.9867 135.269 38.1317 134.46 38.1317Z" fill="#202020"/>
<path d="M145.03 38.2404C143.858 38.2404 142.898 37.9867 142.148 37.4792C141.399 36.9717 140.946 36.2467 140.789 35.3042L142.891 34.7604C142.976 35.1833 143.115 35.5156 143.308 35.7573C143.514 35.999 143.762 36.1742 144.051 36.2829C144.354 36.3796 144.68 36.4279 145.03 36.4279C145.562 36.4279 145.955 36.3373 146.208 36.156C146.462 35.9627 146.589 35.7271 146.589 35.4492C146.589 35.1712 146.468 34.9598 146.227 34.8148C145.985 34.6577 145.598 34.5308 145.067 34.4342L144.559 34.3435C143.931 34.2227 143.357 34.0596 142.837 33.8542C142.318 33.6367 141.901 33.3406 141.587 32.966C141.272 32.5915 141.115 32.1081 141.115 31.516C141.115 30.6219 141.441 29.9392 142.094 29.4679C142.746 28.9846 143.604 28.7429 144.668 28.7429C145.671 28.7429 146.504 28.9665 147.169 29.4135C147.834 29.8606 148.269 30.4467 148.474 31.1717L146.353 31.8242C146.257 31.365 146.057 31.0387 145.755 30.8454C145.465 30.6521 145.103 30.5554 144.668 30.5554C144.233 30.5554 143.9 30.634 143.671 30.791C143.441 30.936 143.326 31.1415 143.326 31.4073C143.326 31.6973 143.447 31.9148 143.689 32.0598C143.931 32.1927 144.257 32.2954 144.668 32.3679L145.175 32.4585C145.852 32.5794 146.462 32.7425 147.006 32.9479C147.562 33.1412 147.997 33.4252 148.311 33.7998C148.637 34.1623 148.8 34.6577 148.8 35.286C148.8 36.2285 148.456 36.9596 147.767 37.4792C147.09 37.9867 146.178 38.2404 145.03 38.2404Z" fill="#202020"/>
</svg>
