<svg width="184" height="64" viewBox="0 0 184 64" fill="none" xmlns="http://www.w3.org/2000/svg">
<path d="M46.5682 17.3335H35.3296L26.2822 26.3809V37.6194L35.3296 46.6668H46.5682L55.6156 37.6194V26.3809L46.5682 17.3335ZM36.8846 37.7608L31.0887 31.9648L36.8846 26.1688C39.0758 23.9777 42.6806 23.9777 44.8718 26.1688L50.6678 31.9648L44.8718 37.7608C42.6806 39.952 39.1465 39.952 36.8846 37.7608Z" fill="#202020"/>
<path d="M68.8951 39.3099C70.6951 39.3099 72.1751 38.3899 72.6351 37.0099V39.1499H75.2951V33.7499C75.2951 32.5299 74.3351 31.4899 73.0351 31.4899H69.2351V33.7499H71.9351C72.2751 33.7499 72.4951 33.9699 72.4951 34.3099C72.4951 35.6099 70.7751 36.8699 69.0351 36.8699C66.7151 36.8699 64.8751 35.0499 64.8751 32.1499C64.8751 29.2499 66.7151 27.5699 69.0951 27.5699C70.8951 27.5699 72.1351 28.5499 72.3551 30.0499H75.3351C75.1551 27.0499 72.6351 24.9899 69.1151 24.9899C65.4151 24.9899 62.0151 27.3699 62.0151 32.1499C62.0151 36.9299 65.3151 39.3099 68.8951 39.3099Z" fill="#202020"/>
<path d="M76.437 39.1499H79.217V24.6899H76.437V39.1499Z" fill="#202020"/>
<path d="M85.2137 39.3099C88.3137 39.3099 90.5337 37.1099 90.5337 34.1099C90.5337 31.1099 88.3137 28.9099 85.2137 28.9099C82.1137 28.9099 79.8937 31.1099 79.8937 34.1099C79.8937 37.1099 82.1137 39.3099 85.2137 39.3099ZM85.2137 36.9099C83.7137 36.9099 82.6937 35.7699 82.6937 34.1099C82.6937 32.4299 83.7137 31.2899 85.2137 31.2899C86.7137 31.2899 87.7337 32.4299 87.7337 34.1099C87.7337 35.7699 86.7137 36.9099 85.2137 36.9099Z" fill="#202020"/>
<path d="M96.7544 39.3099C99.7344 39.3099 101.514 37.2499 101.514 34.1099C101.514 30.9699 99.7344 28.9099 96.7944 28.9099C95.5344 28.9099 94.5544 29.3899 93.9944 30.1299V24.6899H91.2144V39.1499H93.9944V38.0499C94.5544 38.8299 95.5944 39.3099 96.7544 39.3099ZM96.3144 36.9099C94.8144 36.9099 93.8344 35.7899 93.8344 34.1099C93.8344 32.4099 94.8144 31.2899 96.3144 31.2899C97.7744 31.2899 98.7744 32.4099 98.7744 34.1099C98.7744 35.7899 97.7744 36.9099 96.3144 36.9099Z" fill="#202020"/>
<path d="M106.168 28.9099C103.408 28.9099 101.768 30.5299 101.648 32.5499H104.128C104.168 31.7099 104.788 30.9499 106.008 30.9499C107.148 30.9499 107.808 31.5299 107.808 32.3699C107.808 32.7899 107.548 33.1099 107.048 33.1099H105.348C103.148 33.1099 101.668 34.3099 101.668 36.2899C101.668 38.0099 103.008 39.3099 104.968 39.3099C106.348 39.3099 107.468 38.6899 107.808 37.7499V39.1499H110.568V32.6699C110.568 30.3899 108.708 28.9099 106.168 28.9099ZM105.668 37.2899C104.888 37.2899 104.328 36.8299 104.328 36.1699C104.328 35.3899 104.928 34.8699 105.768 34.8699H107.808V35.0099C107.808 36.2899 107.028 37.2899 105.668 37.2899Z" fill="#202020"/>
<path d="M111.636 39.1499H114.416V24.6899H111.636V39.1499Z" fill="#202020"/>
<path d="M115.893 39.1499H121.613C124.573 39.1499 126.613 37.6299 126.613 34.9699C126.613 33.1299 125.533 32.0099 124.253 31.5099C125.073 31.0699 125.893 30.0699 125.893 28.7499C125.893 26.4099 123.993 25.1499 121.453 25.1499H115.893V39.1499ZM118.853 30.4899V27.5299H121.173C122.513 27.5299 123.113 28.0699 123.113 29.0099C123.113 29.9499 122.513 30.4899 121.233 30.4899H118.853ZM118.853 36.5499V33.0299H121.353C123.013 33.0299 123.753 33.6699 123.753 34.8099C123.753 35.9499 123.013 36.5499 121.353 36.5499H118.853Z" fill="#202020"/>
<path d="M131.449 28.9099C128.689 28.9099 127.049 30.5299 126.929 32.5499H129.409C129.449 31.7099 130.069 30.9499 131.289 30.9499C132.429 30.9499 133.089 31.5299 133.089 32.3699C133.089 32.7899 132.829 33.1099 132.329 33.1099H130.629C128.429 33.1099 126.949 34.3099 126.949 36.2899C126.949 38.0099 128.289 39.3099 130.249 39.3099C131.629 39.3099 132.749 38.6899 133.089 37.7499V39.1499H135.849V32.6699C135.849 30.3899 133.989 28.9099 131.449 28.9099ZM130.949 37.2899C130.169 37.2899 129.609 36.8299 129.609 36.1699C129.609 35.3899 130.209 34.8699 131.049 34.8699H133.089V35.0099C133.089 36.2899 132.309 37.2899 130.949 37.2899Z" fill="#202020"/>
<path d="M136.757 39.1499H139.557V33.6299C139.557 32.3299 140.417 31.3899 141.637 31.3899C142.797 31.3899 143.577 32.2699 143.577 33.4899V39.1499H146.377V32.8699C146.377 30.5499 144.897 28.9099 142.617 28.9099C141.237 28.9099 140.117 29.4899 139.557 30.4699V29.0699H136.757V39.1499Z" fill="#202020"/>
<path d="M154.358 39.1499H157.718L153.378 33.0299L157.398 29.0699H153.878L150.378 32.5099V24.6899H147.578V39.1499H150.378V35.9899L151.498 34.8899L154.358 39.1499Z" fill="#202020"/>
</svg>
