<svg width="184" height="64" viewBox="0 0 184 64" fill="none" xmlns="http://www.w3.org/2000/svg">
<path d="M46.7364 19.7198C48.349 19.0518 50.0775 18.708 51.8229 18.708V25.3538C50.9501 25.3538 50.086 25.5257 49.2797 25.8598C48.4733 26.1937 47.7407 26.6832 47.1236 27.3003C46.5065 27.9175 46.017 28.6501 45.683 29.4564C45.349 30.2627 45.1771 31.1269 45.1771 31.9997H38.5312C38.5312 30.2542 38.8751 28.5258 39.543 26.9131C40.211 25.3005 41.19 23.8353 42.4243 22.601C43.6586 21.3668 45.1238 20.3878 46.7364 19.7198Z" fill="#202020"/>
<path opacity="0.8" d="M38.5312 32C38.5312 33.7455 38.8751 35.4739 39.543 37.0865C40.211 38.6992 41.19 40.1643 42.4243 41.3987C43.6586 42.6329 45.1238 43.6119 46.7364 44.2799C48.349 44.9478 50.0775 45.2917 51.8229 45.2917C53.5684 45.2917 55.2968 44.9478 56.9094 44.2799C58.5221 43.6119 59.9873 42.6329 61.2216 41.3987C62.4558 40.1643 63.4348 38.6992 64.1028 37.0865C64.7707 35.4739 65.1146 33.7455 65.1146 32H58.4688C58.4688 32.8728 58.2969 33.737 57.9628 34.5433C57.6289 35.3496 57.1394 36.0822 56.5222 36.6993C55.9051 37.3164 55.1725 37.806 54.3662 38.1399C53.5599 38.474 52.6957 38.6458 51.8229 38.6458C50.9501 38.6458 50.086 38.474 49.2797 38.1399C48.4733 37.806 47.7407 37.3164 47.1236 36.6993C46.5065 36.0822 46.017 35.3496 45.683 34.5433C45.349 33.737 45.1771 32.8728 45.1771 32H38.5312Z" fill="#202020"/>
<path opacity="0.8" d="M51.8229 27.7705C49.4872 27.7705 47.5938 29.664 47.5938 31.9997H56.0521C56.0521 29.664 54.1586 27.7705 51.8229 27.7705Z" fill="#202020"/>
<path d="M51.8229 36.229C49.4872 36.229 47.5938 34.3355 47.5938 31.9998H56.0521C56.0521 34.3355 54.1586 36.229 51.8229 36.229Z" fill="#202020"/>
<path d="M78.8997 29.2222C78.8517 28.7376 78.6454 28.3611 78.281 28.0928C77.9165 27.8244 77.4219 27.6903 76.7972 27.6903C76.3727 27.6903 76.0142 27.7504 75.7219 27.8705C75.4295 27.9866 75.2052 28.1488 75.049 28.3571C74.8968 28.5654 74.8208 28.8016 74.8208 29.066C74.8127 29.2862 74.8588 29.4785 74.9589 29.6427C75.0631 29.8069 75.2052 29.949 75.3854 30.0692C75.5657 30.1853 75.7739 30.2875 76.0102 30.3756C76.2465 30.4597 76.4988 30.5318 76.7671 30.5918L77.8725 30.8561C78.4091 30.9763 78.9017 31.1365 79.3503 31.3367C79.7988 31.537 80.1873 31.7833 80.5157 32.0756C80.8441 32.368 81.0984 32.7124 81.2786 33.1089C81.4629 33.5054 81.557 33.9599 81.561 34.4726C81.557 35.2255 81.3648 35.8783 80.9843 36.431C80.6078 36.9796 80.0632 37.4062 79.3503 37.7105C78.6414 38.0109 77.7864 38.1611 76.7852 38.1611C75.7919 38.1611 74.9269 38.0089 74.19 37.7045C73.4571 37.4001 72.8844 36.9496 72.4719 36.3529C72.0634 35.7521 71.8491 35.0092 71.8291 34.1241H74.3462C74.3742 34.5366 74.4924 34.8811 74.7006 35.1574C74.9129 35.4297 75.1952 35.636 75.5476 35.7762C75.9041 35.9123 76.3066 35.9804 76.7551 35.9804C77.1957 35.9804 77.5781 35.9163 77.9025 35.7882C78.2309 35.66 78.4852 35.4818 78.6655 35.2535C78.8457 35.0252 78.9358 34.7629 78.9358 34.4666C78.9358 34.1902 78.8537 33.9579 78.6895 33.7697C78.5293 33.5815 78.293 33.4213 77.9806 33.2891C77.6722 33.157 77.2938 33.0368 76.8452 32.9287L75.5056 32.5923C74.4683 32.34 73.6493 31.9455 73.0486 31.4088C72.4479 30.8722 72.1495 30.1493 72.1535 29.2402C72.1495 28.4953 72.3477 27.8445 72.7482 27.2878C73.1527 26.7311 73.7074 26.2966 74.4123 25.9842C75.1171 25.6718 75.9181 25.5156 76.8152 25.5156C77.7283 25.5156 78.5253 25.6718 79.2061 25.9842C79.891 26.2966 80.4236 26.7311 80.8041 27.2878C81.1845 27.8445 81.3808 28.4893 81.3928 29.2222H78.8997Z" fill="#202020"/>
<path d="M87.4677 38.1671C86.5185 38.1671 85.7015 37.9748 85.0167 37.5904C84.3359 37.2019 83.8112 36.6532 83.4428 35.9444C83.0743 35.2315 82.8901 34.3885 82.8901 33.4153C82.8901 32.4661 83.0743 31.6331 83.4428 30.9162C83.8112 30.1993 84.3299 29.6407 84.9987 29.2402C85.6715 28.8397 86.4605 28.6394 87.3656 28.6394C87.9743 28.6394 88.541 28.7376 89.0657 28.9338C89.5943 29.126 90.0549 29.4164 90.4473 29.8049C90.8438 30.1933 91.1522 30.6819 91.3725 31.2707C91.5927 31.8554 91.7029 32.5402 91.7029 33.3252V34.028H83.9114V32.4421H89.2939C89.2939 32.0736 89.2138 31.7472 89.0536 31.4629C88.8934 31.1785 88.6712 30.9563 88.3868 30.7961C88.1065 30.6319 87.7801 30.5498 87.4076 30.5498C87.0192 30.5498 86.6747 30.6399 86.3744 30.8201C86.078 30.9963 85.8457 31.2346 85.6775 31.535C85.5093 31.8313 85.4232 32.1617 85.4192 32.5262V34.034C85.4192 34.4906 85.5033 34.8851 85.6715 35.2175C85.8437 35.5499 86.086 35.8062 86.3984 35.9864C86.7108 36.1666 87.0812 36.2567 87.5098 36.2567C87.7941 36.2567 88.0544 36.2167 88.2907 36.1366C88.527 36.0565 88.7292 35.9364 88.8975 35.7762C89.0657 35.616 89.1938 35.4197 89.2819 35.1874L91.6488 35.3436C91.5287 35.9123 91.2824 36.4089 90.9099 36.8335C90.5415 37.254 90.0649 37.5824 89.4802 37.8187C88.8995 38.0509 88.2286 38.1671 87.4677 38.1671Z" fill="#202020"/>
<path d="M97.53 41.6393C96.701 41.6393 95.9901 41.5252 95.3974 41.2969C94.8087 41.0726 94.3401 40.7663 93.9917 40.3778C93.6433 39.9893 93.417 39.5528 93.3128 39.0682L95.6797 38.7498C95.7518 38.934 95.866 39.1062 96.0222 39.2664C96.1783 39.4266 96.3846 39.5548 96.6409 39.6509C96.9012 39.751 97.2176 39.8011 97.5901 39.8011C98.1468 39.8011 98.6053 39.6649 98.9658 39.3926C99.3302 39.1243 99.5124 38.6737 99.5124 38.0409V36.3529H99.4043C99.2922 36.6092 99.1239 36.8515 98.8997 37.0798C98.6754 37.308 98.387 37.4943 98.0346 37.6384C97.6822 37.7826 97.2617 37.8547 96.7731 37.8547C96.0802 37.8547 95.4495 37.6945 94.8808 37.3741C94.3161 37.0497 93.8655 36.5551 93.5291 35.8903C93.1967 35.2215 93.0305 34.3765 93.0305 33.3552C93.0305 32.3099 93.2007 31.4369 93.5411 30.736C93.8815 30.0351 94.3341 29.5105 94.8988 29.1621C95.4675 28.8137 96.0902 28.6394 96.7671 28.6394C97.2837 28.6394 97.7162 28.7275 98.0647 28.9038C98.4131 29.076 98.6934 29.2922 98.9057 29.5526C99.1219 29.8089 99.2882 30.0612 99.4043 30.3095H99.5004V28.7596H102.042V38.077C102.042 38.8619 101.849 39.5187 101.465 40.0474C101.08 40.576 100.548 40.9725 99.8669 41.2368C99.19 41.5052 98.4111 41.6393 97.53 41.6393ZM97.5841 35.9324C97.9966 35.9324 98.345 35.8302 98.6293 35.626C98.9177 35.4177 99.138 35.1214 99.2902 34.7369C99.4463 34.3484 99.5244 33.8838 99.5244 33.3432C99.5244 32.8025 99.4483 32.334 99.2962 31.9375C99.144 31.537 98.9237 31.2266 98.6354 31.0063C98.347 30.7861 97.9966 30.6759 97.5841 30.6759C97.1636 30.6759 96.8091 30.7901 96.5208 31.0183C96.2324 31.2426 96.0141 31.555 95.866 31.9555C95.7178 32.356 95.6437 32.8185 95.6437 33.3432C95.6437 33.8758 95.7178 34.3364 95.866 34.7249C96.0182 35.1093 96.2364 35.4077 96.5208 35.62C96.8091 35.8282 97.1636 35.9324 97.5841 35.9324Z" fill="#202020"/>
<path d="M104.078 37.9869V28.7596H106.517V30.3876H106.625C106.817 29.8469 107.138 29.4204 107.586 29.108C108.035 28.7956 108.571 28.6394 109.196 28.6394C109.829 28.6394 110.368 28.7976 110.812 29.114C111.257 29.4264 111.553 29.8509 111.701 30.3876H111.797C111.986 29.8589 112.326 29.4364 112.819 29.12C113.315 28.7996 113.902 28.6394 114.579 28.6394C115.44 28.6394 116.139 28.9138 116.675 29.4624C117.216 30.0071 117.486 30.7801 117.486 31.7813V37.9869H114.933V32.2859C114.933 31.7733 114.797 31.3888 114.525 31.1325C114.252 30.8762 113.912 30.748 113.504 30.748C113.039 30.748 112.677 30.8962 112.416 31.1926C112.156 31.4849 112.026 31.8714 112.026 32.352V37.9869H109.545V32.2318C109.545 31.7793 109.415 31.4188 109.154 31.1505C108.898 30.8822 108.559 30.748 108.139 30.748C107.855 30.748 107.598 30.8201 107.37 30.9643C107.146 31.1045 106.968 31.3027 106.835 31.559C106.703 31.8113 106.637 32.1077 106.637 32.4481V37.9869H104.078Z" fill="#202020"/>
<path d="M123.713 38.1671C122.764 38.1671 121.947 37.9748 121.262 37.5904C120.581 37.2019 120.057 36.6532 119.688 35.9444C119.32 35.2315 119.135 34.3885 119.135 33.4153C119.135 32.4661 119.32 31.6331 119.688 30.9162C120.057 30.1993 120.575 29.6407 121.244 29.2402C121.917 28.8397 122.706 28.6394 123.611 28.6394C124.22 28.6394 124.786 28.7376 125.311 28.9338C125.84 29.126 126.3 29.4164 126.693 29.8049C127.089 30.1933 127.397 30.6819 127.618 31.2707C127.838 31.8554 127.948 32.5402 127.948 33.3252V34.028H120.157V32.4421H125.539C125.539 32.0736 125.459 31.7472 125.299 31.4629C125.139 31.1785 124.916 30.9563 124.632 30.7961C124.352 30.6319 124.025 30.5498 123.653 30.5498C123.264 30.5498 122.92 30.6399 122.62 30.8201C122.323 30.9963 122.091 31.2346 121.923 31.535C121.755 31.8313 121.668 32.1617 121.664 32.5262V34.034C121.664 34.4906 121.749 34.8851 121.917 35.2175C122.089 35.5499 122.331 35.8062 122.644 35.9864C122.956 36.1666 123.327 36.2567 123.755 36.2567C124.039 36.2567 124.3 36.2167 124.536 36.1366C124.772 36.0565 124.975 35.9364 125.143 35.7762C125.311 35.616 125.439 35.4197 125.527 35.1874L127.894 35.3436C127.774 35.9123 127.528 36.4089 127.155 36.8335C126.787 37.254 126.31 37.5824 125.725 37.8187C125.145 38.0509 124.474 38.1671 123.713 38.1671Z" fill="#202020"/>
<path d="M132.177 32.6523V37.9869H129.618V28.7596H132.057V30.3876H132.165C132.37 29.8509 132.712 29.4264 133.193 29.114C133.673 28.7976 134.256 28.6394 134.941 28.6394C135.581 28.6394 136.14 28.7796 136.617 29.06C137.093 29.3403 137.464 29.7408 137.728 30.2614C137.992 30.7781 138.125 31.3948 138.125 32.1117V37.9869H135.565V32.5682C135.569 32.0036 135.425 31.563 135.133 31.2466C134.841 30.9262 134.438 30.766 133.925 30.766C133.581 30.766 133.277 30.8401 133.012 30.9883C132.752 31.1365 132.548 31.3528 132.4 31.6371C132.255 31.9174 132.181 32.2559 132.177 32.6523Z" fill="#202020"/>
<path d="M145.05 28.7596V30.6819H139.493V28.7596H145.05ZM140.754 26.5489H143.313V35.1514C143.313 35.3877 143.349 35.5719 143.422 35.7041C143.494 35.8322 143.594 35.9223 143.722 35.9744C143.854 36.0265 144.006 36.0525 144.178 36.0525C144.299 36.0525 144.419 36.0425 144.539 36.0225C144.659 35.9984 144.751 35.9804 144.815 35.9684L145.218 37.8727C145.09 37.9128 144.909 37.9588 144.677 38.0109C144.445 38.067 144.162 38.101 143.83 38.113C143.213 38.137 142.673 38.0549 142.208 37.8667C141.748 37.6785 141.389 37.3861 141.133 36.9896C140.876 36.5932 140.75 36.0925 140.754 35.4878V26.5489Z" fill="#202020"/>
</svg>
