<svg width="184" height="64" viewBox="0 0 184 64" fill="none" xmlns="http://www.w3.org/2000/svg">
<rect x="40.9482" y="29.1001" width="5.79999" height="5.79999" fill="#202020"/>
<rect x="58.3477" y="34.8999" width="5.8" height="5.79999" transform="rotate(180 58.3477 34.8999)" fill="#202020"/>
<path opacity="0.4" d="M46.748 29.0998L52.548 23.2998V29.0998L46.748 34.8998V29.0998Z" fill="#202020"/>
<path opacity="0.6" d="M52.5479 34.9002L46.7479 40.7002L46.7479 34.9002L52.5479 29.1002L52.5479 34.9002Z" fill="#202020"/>
<path opacity="0.8" d="M40.9482 29.1L52.5482 17.5V23.3L46.7482 29.1H40.9482Z" fill="#202020"/>
<path opacity="0.8" d="M58.3477 34.9L46.7477 46.5L46.7477 40.7L52.5477 34.9L58.3477 34.9Z" fill="#202020"/>
<path d="M70.9795 38.2108C70.066 38.2108 69.1807 38.0811 68.3236 37.8217C67.4778 37.5623 66.8068 37.2183 66.3105 36.7898L67.0718 35.0812C67.5567 35.4646 68.1488 35.7804 68.848 36.0285C69.5585 36.2654 70.269 36.3838 70.9795 36.3838C71.8592 36.3838 72.5133 36.2428 72.9419 35.9609C73.3817 35.6789 73.6016 35.3067 73.6016 34.8444C73.6016 34.506 73.4776 34.2297 73.2295 34.0154C72.9926 33.7899 72.6881 33.6151 72.316 33.491C71.9438 33.367 71.4363 33.226 70.7935 33.0681C69.8912 32.8538 69.1582 32.6395 68.5943 32.4253C68.0417 32.211 67.5624 31.8783 67.1564 31.4272C66.7617 30.9648 66.5643 30.3445 66.5643 29.5663C66.5643 28.9122 66.7391 28.3202 67.0887 27.7901C67.4496 27.2488 67.9853 26.8202 68.6958 26.5044C69.4176 26.1887 70.2972 26.0308 71.3348 26.0308C72.0566 26.0308 72.7671 26.121 73.4663 26.3014C74.1655 26.4819 74.7689 26.7413 75.2764 27.0796L74.5828 28.7882C74.064 28.4837 73.5227 28.2525 72.9588 28.0946C72.3949 27.9367 71.8479 27.8578 71.3179 27.8578C70.4495 27.8578 69.801 28.0044 69.3725 28.2976C68.9552 28.5908 68.7465 28.9799 68.7465 29.4649C68.7465 29.8032 68.865 30.0795 69.1018 30.2938C69.3499 30.508 69.66 30.6772 70.0322 30.8013C70.4044 30.9253 70.9119 31.0663 71.5547 31.2242C72.4344 31.4272 73.1562 31.6415 73.72 31.867C74.2839 32.0813 74.7632 32.414 75.158 32.8651C75.564 33.3162 75.767 33.9252 75.767 34.6921C75.767 35.3462 75.5865 35.9383 75.2256 36.4684C74.876 36.9984 74.3403 37.4213 73.6185 37.7371C72.8968 38.0529 72.0171 38.2108 70.9795 38.2108Z" fill="#202020"/>
<path d="M77.7446 29.0081H79.8592V38.0416H77.7446V29.0081ZM78.8104 27.5194C78.4269 27.5194 78.1055 27.401 77.8461 27.1642C77.5867 26.9161 77.457 26.6116 77.457 26.2507C77.457 25.8898 77.5867 25.5909 77.8461 25.3541C78.1055 25.106 78.4269 24.9819 78.8104 24.9819C79.1938 24.9819 79.5152 25.1004 79.7746 25.3372C80.034 25.5627 80.1637 25.8503 80.1637 26.1999C80.1637 26.5721 80.034 26.8879 79.7746 27.1473C79.5265 27.3954 79.2051 27.5194 78.8104 27.5194Z" fill="#202020"/>
<path d="M85.4258 38.16C84.6928 38.16 83.9767 38.0642 83.2774 37.8724C82.5782 37.6807 82.02 37.4382 81.6027 37.145L82.4147 35.5379C82.8207 35.8086 83.3056 36.0285 83.8695 36.1977C84.4447 36.3556 85.0086 36.4345 85.5612 36.4345C86.8243 36.4345 87.4558 36.1018 87.4558 35.4364C87.4558 35.1207 87.2923 34.9007 86.9653 34.7767C86.6495 34.6526 86.1363 34.5342 85.4258 34.4214C84.6815 34.3087 84.0725 34.179 83.5988 34.0324C83.1365 33.8857 82.7305 33.632 82.3808 33.2711C82.0425 32.8989 81.8733 32.3858 81.8733 31.7317C81.8733 30.8746 82.2286 30.1923 82.9391 29.6848C83.6609 29.166 84.6308 28.9066 85.8488 28.9066C86.469 28.9066 87.0893 28.9799 87.7096 29.1265C88.3299 29.2619 88.8374 29.4479 89.2321 29.6848L88.4201 31.2919C87.6532 30.8407 86.7905 30.6152 85.8318 30.6152C85.2116 30.6152 84.7379 30.711 84.4108 30.9028C84.0951 31.0832 83.9372 31.3257 83.9372 31.6302C83.9372 31.9685 84.1063 32.211 84.4447 32.3576C84.7943 32.4929 85.33 32.6226 86.0518 32.7467C86.7735 32.8595 87.3656 32.9892 87.828 33.1358C88.2904 33.2824 88.6851 33.5305 89.0122 33.8801C89.3505 34.2297 89.5197 34.7259 89.5197 35.3688C89.5197 36.2146 89.1531 36.8913 88.4201 37.3988C87.687 37.9063 86.689 38.16 85.4258 38.16Z" fill="#202020"/>
<path d="M99.6339 29.0081L95.4047 38.769C95.01 39.7502 94.5307 40.4381 93.9668 40.8329C93.4029 41.2389 92.7206 41.4419 91.9199 41.4419C91.4687 41.4419 91.0233 41.3685 90.5834 41.2219C90.1436 41.0753 89.7827 40.8723 89.5008 40.6129L90.3466 39.0566C90.5496 39.2483 90.7864 39.4006 91.0571 39.5134C91.3391 39.6261 91.621 39.6825 91.9029 39.6825C92.2751 39.6825 92.5796 39.5867 92.8164 39.3949C93.0646 39.2032 93.2901 38.8818 93.4931 38.4307L93.6454 38.0754L89.7038 29.0081H91.9029L94.7449 35.6902L97.6039 29.0081H99.6339Z" fill="#202020"/>
<path d="M105.963 28.9066C106.842 28.9066 107.626 29.0983 108.314 29.4818C109.013 29.8652 109.56 30.4065 109.955 31.1058C110.35 31.805 110.547 32.6114 110.547 33.5249C110.547 34.4384 110.35 35.2504 109.955 35.9609C109.56 36.6601 109.013 37.2014 108.314 37.5849C107.626 37.9683 106.842 38.16 105.963 38.16C104.745 38.16 103.781 37.754 103.07 36.942V41.3234H100.955V29.0081H102.969V30.1923C103.318 29.7637 103.747 29.4423 104.254 29.228C104.773 29.0137 105.343 28.9066 105.963 28.9066ZM105.726 36.3499C106.504 36.3499 107.141 36.0905 107.638 35.5718C108.145 35.053 108.399 34.3707 108.399 33.5249C108.399 32.679 108.145 31.9967 107.638 31.4779C107.141 30.9592 106.504 30.6998 105.726 30.6998C105.218 30.6998 104.762 30.8182 104.356 31.055C103.95 31.2806 103.628 31.6076 103.391 32.0362C103.155 32.4647 103.036 32.961 103.036 33.5249C103.036 34.0887 103.155 34.585 103.391 35.0135C103.628 35.4421 103.95 35.7748 104.356 36.0116C104.762 36.2372 105.218 36.3499 105.726 36.3499Z" fill="#202020"/>
<path d="M117.678 28.9066C118.817 28.9066 119.731 29.2393 120.419 29.9047C121.107 30.5701 121.451 31.5569 121.451 32.8651V38.0416H119.336V33.1358C119.336 32.3463 119.15 31.7542 118.778 31.3595C118.406 30.9535 117.876 30.7505 117.188 30.7505C116.41 30.7505 115.795 30.9874 115.344 31.461C114.893 31.9234 114.667 32.5944 114.667 33.4741V38.0416H112.553V25.4894H114.667V30.0569C115.017 29.6848 115.445 29.4028 115.953 29.2111C116.472 29.0081 117.047 28.9066 117.678 28.9066Z" fill="#202020"/>
<path d="M132.879 29.0081V38.0416H130.866V36.8913C130.528 37.2973 130.105 37.613 129.597 37.8386C129.09 38.0529 128.543 38.16 127.956 38.16C126.75 38.16 125.797 37.8273 125.098 37.1619C124.41 36.4853 124.066 35.4872 124.066 34.1677V29.0081H126.18V33.8801C126.18 34.6921 126.361 35.3011 126.722 35.7071C127.094 36.1018 127.618 36.2992 128.295 36.2992C129.05 36.2992 129.648 36.068 130.088 35.6056C130.539 35.1319 130.765 34.4553 130.765 33.5756V29.0081H132.879Z" fill="#202020"/>
<path d="M138.439 38.16C137.706 38.16 136.99 38.0642 136.291 37.8724C135.591 37.6807 135.033 37.4382 134.616 37.145L135.428 35.5379C135.834 35.8086 136.319 36.0285 136.883 36.1977C137.458 36.3556 138.022 36.4345 138.574 36.4345C139.838 36.4345 140.469 36.1018 140.469 35.4364C140.469 35.1207 140.306 34.9007 139.979 34.7767C139.663 34.6526 139.15 34.5342 138.439 34.4214C137.695 34.3087 137.086 34.179 136.612 34.0324C136.15 33.8857 135.744 33.632 135.394 33.2711C135.056 32.8989 134.887 32.3858 134.887 31.7317C134.887 30.8746 135.242 30.1923 135.952 29.6848C136.674 29.166 137.644 28.9066 138.862 28.9066C139.482 28.9066 140.103 28.9799 140.723 29.1265C141.343 29.2619 141.851 29.4479 142.245 29.6848L141.433 31.2919C140.666 30.8407 139.804 30.6152 138.845 30.6152C138.225 30.6152 137.751 30.711 137.424 30.9028C137.108 31.0832 136.95 31.3257 136.95 31.6302C136.95 31.9685 137.12 32.211 137.458 32.3576C137.808 32.4929 138.343 32.6226 139.065 32.7467C139.787 32.8595 140.379 32.9892 140.841 33.1358C141.304 33.2824 141.698 33.5305 142.025 33.8801C142.364 34.2297 142.533 34.7259 142.533 35.3688C142.533 36.2146 142.166 36.8913 141.433 37.3988C140.7 37.9063 139.702 38.16 138.439 38.16Z" fill="#202020"/>
</svg>
